<svg width="31" height="34" viewBox="0 0 31 34" fill="none" xmlns="http://www.w3.org/2000/svg">
<rect width="31" height="34" fill="#1E1E1E"/>
<g id="om 1">
<g id="Group">
<path id="Vector" d="M13.3799 0.0547653C12.8256 0.153203 12.3542 0.395078 11.9342 0.797265C11.4114 1.29508 11.1285 1.91102 11.0942 2.6282C11.0399 3.7307 11.6399 4.73477 12.6428 5.2157C13.0485 5.41258 13.2828 5.46883 13.7342 5.48852C14.3028 5.51383 14.6856 5.43508 15.1571 5.19883C15.9285 4.81352 16.4914 4.05133 16.6314 3.20758C16.6799 2.90383 16.6514 2.31039 16.5714 2.03758C16.3256 1.18258 15.6714 0.482265 14.8314 0.181328C14.3856 0.0210153 13.8371 -0.0267972 13.3799 0.0547653Z" fill="white"/>
<path id="Vector_2" d="M7.22868 4.59689C7.14297 4.68126 7.15725 4.7572 7.32583 5.09189C7.4944 5.43501 7.75725 5.82876 8.08011 6.22814C8.38583 6.61064 9.2344 7.43189 9.68583 7.78626C12.443 9.9547 15.8944 10.7647 19.3287 10.0503C20.243 9.86189 21.3144 9.51314 22.1858 9.12501C22.5344 8.97033 22.543 8.94501 22.3858 8.48376C22.0515 7.50501 21.1601 6.26751 20.1201 5.33939C19.8687 5.11439 19.7715 5.04689 19.7115 5.04689C19.6573 5.04689 19.523 5.12564 19.2801 5.30001C18.0715 6.16626 16.7573 6.69501 15.3144 6.89189C14.8687 6.95376 13.9401 6.97345 13.4544 6.93408C11.483 6.77095 9.45154 5.99189 7.63725 4.70658C7.38868 4.52658 7.31725 4.5097 7.22868 4.59689Z" fill="white"/>
<path id="Vector_3" d="M6.08572 11.0853C5.20858 11.1528 4.17144 11.3919 3.28572 11.7322C2.62001 11.9882 1.44287 12.621 1.36572 12.7616C1.29429 12.8966 1.45144 13.2791 1.80858 13.8416C2.55144 15.0088 3.48572 15.965 4.29715 16.3813L4.53429 16.505L4.70287 16.415C5.52001 15.9791 6.1743 15.6866 6.75715 15.4953C8.68001 14.8682 10.2886 15.155 11.28 16.3053C11.68 16.7666 11.9772 17.3572 12.1 17.9282C12.1457 18.1363 12.16 18.5638 12.1229 18.5835C12.1086 18.5891 11.7343 18.561 11.2857 18.5188C9.46001 18.3444 8.13715 18.2797 7.00001 18.3022C5.46001 18.336 4.46001 18.4935 3.75715 18.8113C3.42287 18.9632 3.40858 18.9997 3.53144 19.3569C3.86001 20.33 4.78001 21.5 5.74572 22.1891C6.10287 22.445 6.0743 22.4366 6.48572 22.341C10.5114 21.41 13.4829 21.9782 14.4886 23.871C14.7286 24.3238 14.8286 24.7428 14.8286 25.2997C14.8286 27.3022 13.1114 29.1669 10.8314 29.6394C10.3114 29.7491 9.8943 29.78 9.20001 29.7603C6.06858 29.6732 3.80001 28.5763 2.20572 26.3769C1.90287 25.9607 1.56287 25.3897 1.15715 24.6219C0.765723 23.885 0.554295 23.5222 0.457152 23.4182C0.385723 23.3422 0.254295 23.3366 0.191437 23.4069C0.12858 23.4744 0.12858 23.646 0.185723 24.1438C0.551437 27.2685 2.50001 30.3735 5.23144 32.1819C6.44572 32.9835 7.84572 33.5488 9.25715 33.8019C10.0314 33.9425 10.4086 33.9735 11.3286 33.9707C12.2943 33.9707 12.6686 33.9313 13.3886 33.7485C15.3543 33.2535 16.8372 31.9288 17.6429 29.9516C18.0743 28.8913 18.2686 27.8675 18.2657 26.6328C18.2657 25.6063 18.1286 24.7738 17.8372 24.0482C17.7829 23.9132 17.7486 23.7922 17.7629 23.781C17.7743 23.7697 17.8914 23.6882 18.02 23.5982C18.2886 23.4097 18.6743 23.03 18.8629 22.7657C19.2543 22.2228 19.4514 21.6407 19.6857 20.375C19.8943 19.236 20.0114 18.8197 20.2657 18.3416C20.6057 17.7003 21.2286 17.1378 21.9057 16.8594C22.8543 16.4713 23.9943 16.6653 24.9572 17.3825C25.1629 17.5344 25.6114 17.9647 25.7743 18.1672C26.5029 19.0672 26.8914 20.3385 26.7743 21.4297C26.6543 22.5322 26.2143 23.5419 25.5 24.3491C24.5857 25.3813 23.0714 26.135 21.4114 26.3797C21.0314 26.436 21.0172 26.45 21.0372 26.7735C21.0914 27.5807 21.5314 28.4047 22.3286 29.195C22.8772 29.7407 23.5457 30.2188 24.2172 30.5478L24.5943 30.7335L24.8029 30.6828C25.2914 30.5675 26.0943 30.2722 26.58 30.0332C28.6886 28.9869 30.1686 27.0322 30.6572 24.65C30.8172 23.871 30.84 23.6122 30.8429 22.6813C30.8429 21.7391 30.8114 21.4044 30.6543 20.6141C30.1314 17.9957 28.6972 15.6922 26.6972 14.255C25.4372 13.3494 23.9829 12.8122 22.4143 12.666C21.5372 12.5872 20.5686 12.815 19.7286 13.2988C18.92 13.7685 18.2029 14.4885 17.7657 15.2732C17.4772 15.7878 17.3029 16.2744 16.9572 17.5203C16.5943 18.8394 16.4172 19.2838 16.1343 19.5791C15.96 19.7619 15.7743 19.835 15.5257 19.8182C15.4686 19.8125 15.4657 19.7928 15.4486 19.3935C15.3029 16.0972 13.6514 13.3888 10.9572 12.0303C9.62858 11.361 8.31715 11.06 6.80001 11.0713C6.47715 11.0741 6.15715 11.0797 6.08572 11.0853Z" fill="white"/>
</g>
</g>
</svg>
