<?xml version="1.0" standalone="no"?>
<!DOCTYPE svg PUBLIC "-//W3C//DTD SVG 20010904//EN"
 "http://www.w3.org/TR/2001/REC-SVG-20010904/DTD/svg10.dtd">
<svg version="1.0" xmlns="http://www.w3.org/2000/svg"
 width="227.000000pt" height="227.000000pt" viewBox="0 0 227.000000 227.000000"
 preserveAspectRatio="xMidYMid meet">
<metadata>
Created by potrace 1.14, written by Peter Selinger 2001-2017
</metadata>
<g transform="translate(0.000000,227.000000) scale(0.100000,-0.100000)"
fill="#000000" stroke="none">
<path d="M1329 2157 c-35 -39 -79 -88 -96 -108 l-33 -36 29 -38 c16 -21 59
-62 97 -91 69 -52 69 -52 97 -35 16 9 62 53 104 99 l76 83 -29 31 c-16 16 -63
61 -105 99 l-76 68 -64 -72z"/>
<path d="M990 2023 c0 -106 59 -231 150 -324 139 -142 301 -176 543 -113 79
20 203 86 264 139 l47 42 -14 34 c-12 28 -78 115 -135 177 -9 10 -26 2 -86
-42 -151 -112 -260 -153 -383 -143 -122 10 -262 101 -337 217 -18 28 -36 50
-41 50 -4 0 -8 -17 -8 -37z"/>
<path d="M643 1775 c-102 -23 -216 -73 -292 -126 -39 -27 -70 -53 -68 -57 7
-14 140 -237 143 -241 2 -2 45 15 95 39 251 116 356 124 439 34 48 -52 51 -83
15 -136 -54 -80 -171 -116 -328 -100 -48 4 -89 6 -91 4 -9 -8 37 -147 68 -210
59 -116 59 -117 168 -117 77 0 101 -4 141 -24 133 -65 155 -274 40 -383 -141
-135 -518 -98 -657 63 -55 65 -113 187 -164 344 -26 80 -51 144 -57 143 -14
-4 -11 -219 4 -293 59 -289 223 -516 443 -613 79 -34 148 -45 266 -40 95 4
117 8 168 33 71 35 178 139 217 212 72 135 75 349 7 499 l-27 61 115 7 c65 4
127 13 142 21 41 21 92 83 186 225 116 177 163 210 277 195 40 -6 59 -15 82
-39 38 -41 66 -127 72 -227 14 -203 -74 -361 -245 -442 -57 -27 -78 -32 -142
-32 -57 0 -85 6 -116 22 -71 38 -143 139 -144 203 -1 25 -1 25 -18 -5 -35 -62
-14 -274 38 -374 29 -57 96 -127 144 -150 68 -34 154 -45 232 -32 137 24 234
102 304 244 173 354 78 843 -195 1002 -43 26 -61 30 -146 33 -209 9 -289 -48
-430 -307 -99 -179 -167 -236 -262 -217 -36 7 -137 48 -137 56 0 3 16 14 36
25 69 37 161 188 185 303 28 138 -57 313 -185 380 -44 22 -65 26 -156 29 -63
1 -129 -4 -167 -12z"/>
</g>
</svg>
